/* XPM */
static char * bar3_xpm[] = {
"20 20 112 2",
"  	c #5B664A",
". 	c #5B654A",
"+ 	c #5A654A",
"@ 	c #5C674B",
"# 	c #5C664B",
"$ 	c #5D674C",
"% 	c #5C674C",
"& 	c #5D674B",
"* 	c #5C664C",
"= 	c #656F52",
"- 	c #656E52",
"; 	c #646F52",
"> 	c #656E51",
", 	c #646E51",
"' 	c #646E52",
") 	c #6D7658",
"! 	c #6D7657",
"~ 	c #6C7658",
"{ 	c #6D7557",
"] 	c #6D7558",
"^ 	c #6C7557",
"/ 	c #6C7558",
"( 	c #767D5E",
"_ 	c #767E5E",
": 	c #757D5E",
"< 	c #757E5D",
"[ 	c #757E5E",
"} 	c #757D5D",
"| 	c #7E8664",
"1 	c #7E8564",
"2 	c #7E8563",
"3 	c #7D8564",
"4 	c #7D8563",
"5 	c #7E8464",
"6 	c #7E8463",
"7 	c #868D6A",
"8 	c #868C6A",
"9 	c #858D6A",
"0 	c #858C6A",
"a 	c #868C69",
"b 	c #858C69",
"c 	c #8E9470",
"d 	c #8F9470",
"e 	c #8E946F",
"f 	c #8E9370",
"g 	c #8E936F",
"h 	c #979C76",
"i 	c #969C76",
"j 	c #979B76",
"k 	c #969B76",
"l 	c #979C75",
"m 	c #969C75",
"n 	c #9FA37C",
"o 	c #9EA37C",
"p 	c #9FA47C",
"q 	c #9FA37D",
"r 	c #A8AA83",
"s 	c #A8AB82",
"t 	c #A7AA82",
"u 	c #A7AB82",
"v 	c #A7AA83",
"w 	c #A7AB83",
"x 	c #A6AA82",
"y 	c #B0B388",
"z 	c #AFB288",
"A 	c #B0B289",
"B 	c #AFB289",
"C 	c #B0B288",
"D 	c #B8BA8F",
"E 	c #B7B98F",
"F 	c #B8B98F",
"G 	c #B7BA8F",
"H 	c #B7BA8E",
"I 	c #B8B98E",
"J 	c #C1C195",
"K 	c #C0C294",
"L 	c #C0C195",
"M 	c #C0C295",
"N 	c #C0C194",
"O 	c #BFC195",
"P 	c #C9C99B",
"Q 	c #C9C89B",
"R 	c #C8C99B",
"S 	c #C9C89A",
"T 	c #C8C89A",
"U 	c #C8C89B",
"V 	c #D1D1A1",
"W 	c #D0D0A1",
"X 	c #D1D1A0",
"Y 	c #D1D0A0",
"Z 	c #D1D0A1",
"` 	c #D0D0A0",
" .	c #D9D8A7",
"..	c #DAD8A7",
"+.	c #D9D7A7",
"@.	c #D9D8A6",
"#.	c #D8D7A7",
"$.	c #E1DFAD",
"%.	c #E2E0AD",
"&.	c #E2DFAD",
"*.	c #E1E0AD",
"=.	c #EAE7B3",
"-.	c #EAE7B4",
";.	c #E9E7B3",
">.	c #EAE6B3",
",.	c #F2EFBA",
"'.	c #F2EEBA",
").	c #F2EEB9",
"!.	c #F2EFB9",
"~.	c #F1EEBA",
"{.	c #F1EFB9",
"].	c #F1EEB9",
"  . + . + . . . + + + + . + + . . + + + ",
"@ # $ % & * $ # @ % @ # @ # @ @ * # @ # ",
"= - - ; - > > , - , - > > , ; , > ' , , ",
") ! ! ! ! ) ~ ~ ) ~ ! { ) ] ! ^ ) / / { ",
"( _ : < [ [ [ } < } : : < : } } } } } : ",
"| 1 2 3 1 4 3 3 3 2 5 3 2 3 6 3 4 1 2 3 ",
"7 8 9 0 7 7 8 a b 8 8 a 8 0 7 7 a 9 9 8 ",
"c c d c c c c c c c c c c e c f c c f g ",
"h i i i j h i h k i j l h k k i k k j m ",
"n n o n n p n q n n n n o o n n o o o o ",
"r s t t u v u t t u t t w x t u t t t t ",
"y z A B z C z B y C y B z z C C z C z z ",
"D D D E D D F G G F F E F H D I E H F H ",
"J K L L L L M L L N N N L N L L O N O N ",
"P P Q R Q R R S R R T U Q P R T R U R T ",
"V V V W V X Y W Z W W W W Z X ` W W W W ",
" ... . . . . .+. . .+.+.+.@. . . . .+.#.",
"$.%.&.$.$.$.$.$.&.$.$.$.$.*.$.$.&.$.$.$.",
"=.=.-.;.=.=.=.-.>.;.=.=.;.=.;.;.=.=.;.>.",
",.'.).).).!.!.).~.,.).!.{.!.!.!.).].].]."};
