/* XPM */
static char * close2a_xpm[] = {
"20 20 38 1",
" 	c None",
".	c #8F7763",
"+	c #000000",
"@	c #685648",
"#	c #675547",
"$	c #665346",
"%	c #796251",
"&	c #635145",
"*	c #8F7663",
"=	c #615043",
"-	c #FFFFFF",
";	c #8C7460",
">	c #604F42",
",	c #5F4E41",
"'	c #DEDEDE",
")	c #5E4D40",
"!	c #7E6655",
"~	c #C7C7C7",
"{	c #5D4C3F",
"]	c #B9B9B9",
"^	c #5B4A3D",
"/	c #755D4D",
"(	c #B4B4B4",
"_	c #5A493C",
":	c #6F5949",
"<	c #57473B",
"[	c #6B5546",
"}	c #D1D1D1",
"|	c #554539",
"1	c #665042",
"2	c #544438",
"3	c #624B3D",
"4	c #524236",
"5	c #5D473A",
"6	c #504034",
"7	c #584236",
"8	c #4F3F33",
"9	c #543E32",
".......+............",
"@@@@@@@+.@@@@@@@@@@@",
"@@@@@@@+.@@@@@@@@@@@",
"#######+.###########",
"$$$$$%%+.$$$$%%$$$$$",
"&&&&%+++*&&&%++%&&&&",
"===%+--+;==%+--+%===",
">>>>%+--+%%+--+%>>>>",
",,,,,%+''++''+%,,,,,",
"))))))!+~~~~+!))))))",
"{{{{{{!+]]]]+%{{{{{{",
"^^^^^/+((++((+/^^^^^",
"____:+]]+::+]]+:____",
"<<<[+}}+[<<[+}}+[<<<",
"||||1++1||||1+++1|||",
"2222+3322222233+3222",
"4444+5444444444+5444",
"6666+7666666666+7666",
"8888+9888888888+9888",
"8888+9888888888+9888"};
