/* XPM */
static char * close1_xpm[] = {
"20 20 30 1",
" 	c #8F7763",
".	c #000000",
"+	c #685648",
"@	c #675547",
"#	c #665346",
"$	c #796251",
"%	c #635145",
"&	c #8F7663",
"*	c #615043",
"=	c #8C7460",
"-	c #604F42",
";	c #5F4E41",
">	c #5E4D40",
",	c #5D4C3F",
"'	c #5B4A3D",
")	c #755D4D",
"!	c #5A493C",
"~	c #6F5949",
"{	c #57473B",
"]	c #6B5546",
"^	c #554539",
"/	c #665042",
"(	c #544438",
"_	c #624B3D",
":	c #524236",
"<	c #5D473A",
"[	c #504034",
"}	c #584236",
"|	c #4F3F33",
"1	c #543E32",
"       .            ",
"+++++++. +++++++++++",
"+++++++. +++++++++++",
"@@@@@@@. @@@@@@@@@@@",
"#######. ####$$#####",
"%%%%%%%.&%%%$..$%%%%",
"*******.=**$.**.$***",
"--------.$$.--.$----",
";;;;;;;;;..;;.$;;;;;",
">>>>>>>>>>>>.$>>>>>>",
",,,,,,,,,,,,.$,,,,,,",
"'''''''''..''.)'''''",
"!!!!!!!!.~~.!!.~!!!!",
"{{{{{{{.]{{].{{.]{{{",
"^^^^^../^^^^/.../^^^",
"((((.__((((((__._(((",
"::::.<:::::::::.<:::",
"[[[[.}[[[[[[[[[.}[[[",
"||||.1|||||||||.1|||",
"||||.1|||||||||.1|||"};
