/* XPM */
static char * max2_xpm[] = {
"20 20 29 1",
" 	c None",
".	c #8F7763",
"+	c #000000",
"@	c #685648",
"#	c #675547",
"$	c #665346",
"%	c #796251",
"&	c #635145",
"*	c #615043",
"=	c #604F42",
"-	c #5F4E41",
";	c #5E4D40",
">	c #5D4C3F",
",	c #5B4A3D",
"'	c #755D4D",
")	c #5A493C",
"!	c #6F5949",
"~	c #57473B",
"{	c #6B5546",
"]	c #554539",
"^	c #665042",
"/	c #544438",
"(	c #624B3D",
"_	c #524236",
":	c #5D473A",
"<	c #504034",
"[	c #584236",
"}	c #4F3F33",
"|	c #543E32",
"..........+.........",
"@@@@@@@@@@+.@@@@@@@@",
"@@@@@@@@@@+.@@@@@@@@",
"##########+.########",
"$$$$$$$$$$+.%%%%$$$$",
"&&&&&&&&&&++++++%&&&",
"***************+%***",
"===============+%===",
"---------------+%---",
";;;;;;;;;;;;;;;+%;;;",
">>>>>>>>>>>>>+>+%>>>",
",,,,,,,,,,,,+'++',,,",
")))))))))))+!)!!))))",
"~~~~~~~~~~+{~~~~~~~~",
"]]]]]]]]]+^]]]]]]]]]",
"////////+(//////////",
"________+:__________",
"<<<<<<<<+[<<<<<<<<<<",
"}}}}}}}}+|}}}}}}}}}}",
"}}}}}}}}+|}}}}}}}}}}"};
