/* XPM */
static char * stick1_xpm[] = {
"20 20 78 1",
" 	c None",
".	c #8F7763",
"+	c #000000",
"@	c #849673",
"#	c #685648",
"$	c #5A7142",
"%	c #675547",
"&	c #5F6F48",
"*	c #665346",
"=	c #947662",
"-	c #796251",
";	c #4A5B3B",
">	c #635145",
",	c #927362",
"'	c #7B6152",
")	c #6E825F",
"!	c #415134",
"~	c #615043",
"{	c #8F7060",
"]	c #796051",
"^	c #6C825E",
"/	c #3E4E34",
"(	c #604F42",
"_	c #8C6D5D",
":	c #775D50",
"<	c #6A7F60",
"[	c #3E5038",
"}	c #5F4E41",
"|	c #886B5B",
"1	c #735A4D",
"2	c #667A5F",
"3	c #384A34",
"4	c #5E4D40",
"5	c #856759",
"6	c #70574C",
"7	c #5E7559",
"8	c #354731",
"9	c #5D4C3F",
"0	c #826457",
"a	c #6D554A",
"b	c #597056",
"c	c #283D2A",
"d	c #5B4A3D",
"e	c #7F6155",
"f	c #755D4D",
"g	c #6B5249",
"h	c #536952",
"i	c #5A493C",
"j	c #7C5D53",
"k	c #674F46",
"l	c #4E644F",
"m	c #57473B",
"n	c #6F5949",
"o	c #654D45",
"p	c #475E4A",
"q	c #243B2B",
"r	c #554539",
"s	c #6B5546",
"t	c #624A43",
"u	c #405848",
"v	c #22382B",
"w	c #544438",
"x	c #624B3D",
"y	c #5F4842",
"z	c #1F372A",
"A	c #524236",
"B	c #5C4540",
"C	c #324B38",
"D	c #142E23",
"E	c #504034",
"F	c #5D473A",
"G	c #59433E",
"H	c #4F3F33",
"I	c #584236",
"J	c #56403B",
"K	c #543E32",
"L	c #533D3A",
"M	c #162E20",
"....+...+@@@@@@@@@@@",
"###.+##.+$$$$$$$$$$$",
"###.+###.+$$$$$$$$$$",
"%%%.+%%%%.++++++&&@@",
"***=+*****------+&@;",
">>>,+++++>>>>>>>'+)!",
"~~~{+{{{{+~~~~~~]+^/",
"(((_+((((_+(((((:+<[",
"}}}|+}}}}}|+}}}}1+23",
"4445+4444445+4446+78",
"9990+99999990+99a+bc",
"ddde+dddddddf+ddg+hc",
"iiij+iiiiiiif+iik+lc",
"mmmmn+mmmmmmn+mmo+pq",
"rrrrrs+rrrrrs+rrt+uv",
"wwwwwwx+wwww+xwwy+uz",
"AAAAAAx+++++xAAAB+CD",
"EEEEEEF+FFFFEEEEG+CC",
"HHHHHHI+HHHHHHHHJ+CC",
"HHHHHHK+HHHHHHHHL+MM"};
