/* XPM */
static char * bar_xpm[] = {
"20 20 33 1",
" 	c None",
".	c #004BA7",
"+	c #004AA7",
"@	c #004AA6",
"#	c #004BA8",
"$	c #004CA9",
"%	c #0049A5",
"&	c #0049A6",
"*	c #0048A4",
"=	c #0049A4",
"-	c #004BA9",
";	c #004CAA",
">	c #004DAA",
",	c #0047A2",
"'	c #0047A3",
")	c #0049A7",
"!	c #0046A2",
"~	c #00459F",
"{	c #0045A0",
"]	c #00459E",
"^	c #00469F",
"/	c #00469E",
"(	c #00449E",
"_	c #004399",
":	c #004196",
"<	c #003F92",
"[	c #00377F",
"}	c #00387F",
"|	c #003882",
"1	c #003880",
"2	c #002556",
"3	c #002555",
"4	c #001C3F",
".........+@@@@@@@+#$",
"%%%@@@@@@@@@@@@@%%%&",
"**==========&+-;$>$$",
",,,,,,,,,,,,''*&&&)&",
",!!!!!!!!!!,,''**==*",
"~{{{{{~~~~~~~~~~~~]]",
"]]~^^^^^^^^^^^^^^^^/",
"~~~~~~~~~~~~~~~~~~~(",
"____________________",
"::::::::::::::::::::",
"<<<<<<<<<<<<<<<<<<<<",
"[}|||||||||||||||111",
"23333333333333333333",
"44444444444444444444",
"44444444444444444444",
"44444444444444444444",
"44444444444444444444",
"44444444444444444444",
"44444444444444444444",
"44444444444444444444"};
