/* XPM */
static char * max2a_xpm[] = {
"20 20 37 1",
" 	c None",
".	c #0077E2",
"+	c #0079E5",
"@	c #0078E4",
"#	c #00070E",
"$	c #007AE6",
"%	c #0075E0",
"&	c #0079E4",
"*	c #0078E3",
"=	c #0076E1",
"-	c #000001",
";	c #000002",
">	c #0077E3",
",	c #000000",
"'	c #0074DE",
")	c #0076E0",
"!	c #0077E1",
"~	c #006BF2",
"{	c #0069F0",
"]	c #0069EF",
"^	c #0069EE",
"/	c #0068EC",
"(	c #0049A3",
"_	c #0048A2",
":	c #FFFFFF",
"<	c #0064E4",
"[	c #0060DC",
"}	c #DEDEDE",
"|	c #C7C7C7",
"1	c #B9B9B9",
"2	c #BABABA",
"3	c #B4B4B4",
"4	c #B5B5B5",
"5	c #0067E9",
"6	c #D1D1D1",
"7	c #D0D0D0",
"8	c #E5E5E5",
".++@++@@.#.++$$$+++%",
"&+*+++&*=-+++*@++++.",
"@+++@&*@.;++*++++&+>",
"+@+@+@&@*,++++++++++",
"@+&+++@*',)@=++++++@",
".@++@!>)~~{]^^/%++&+",
"((((((_~,:::::<_____",
"________~,::::[_____",
"_______~,}}}}}[_____",
"______~,||||||[_____",
"_____~,12111~1[_____",
"____~,33344~_5______",
"___~,11112~_________",
"____~,677~__________",
"_____~,8~___________",
"______~,~___________",
"_______,____________",
"_______,____________",
"_______,____________",
"_______,____________"};
