/* XPM */
static char * stick2_xpm[] = {
"20 20 41 1",
" 	c None",
".	c #0070DB",
"+	c #006ED8",
"@	c #006FDA",
"#	c #0070DA",
"$	c #006ED6",
"%	c #000105",
"&	c #0073DE",
"*	c #000000",
"=	c #001C3F",
"-	c #006ED9",
";	c #0074DF",
">	c #0075E1",
",	c #0072DC",
"'	c #0071DB",
")	c #0072DD",
"!	c #000409",
"~	c #0071DC",
"{	c #00070D",
"]	c #0071DA",
"^	c #0075E0",
"/	c #0073DD",
"(	c #00060C",
"_	c #0072DE",
":	c #0072DB",
"<	c #000104",
"[	c #0075DF",
"}	c #006FD8",
"|	c #0070D9",
"1	c #0073DC",
"2	c #0071DD",
"3	c #006ED7",
"4	c #006DD9",
"5	c #0065CB",
"6	c #0066CC",
"7	c #0068CF",
"8	c #006FD7",
"9	c #0070D8",
"0	c #00050B",
"a	c #0048A2",
"b	c #000F1C",
".+@.#$%#&.*=========",
".&.-.#*;>,*=========",
"'&..))!~;;){========",
"';],;,*&^^/]*****(==",
"_/,~:.<]/;,[]''#}-*=",
"#|]:)#*****')1,#'23*",
"}}|})4*5675*'898}}30",
"aaaaaa*aaaaa*aaaaaab",
"aaaaaa*aaaaaa*aaaaab",
"aaaaaa*aaaaaaa*aaaa0",
"aaaaaa*aaaaaaaa*aaa*",
"aaaaaa*aaaaaaaa*aaa*",
"aaaaaa*aaaaaaaa*aaa*",
"aaaaaaa*aaaaaaa*aaa*",
"aaaaaaaa*aaaaaa*aaa*",
"aaaaaaaaa*aaaa*aaaa*",
"aaaaaaaaa*****aaaaa*",
"aaaaaaaaa*aaaaaaaaa*",
"aaaaaaaaa*aaaaaaaaa*",
"aaaaaaaaa*aaaaaaaaa*"};
