/* XPM */
static char * closeu_xpm[] = {
"26 21 17 1",
" 	c None",
".	c #504F4D",
"+	c #686865",
"@	c #F8F7F3",
"#	c #F2F1E9",
"$	c #E7E6DE",
"%	c #F4F4ED",
"&	c #C2C1BA",
"*	c #9E9D98",
"=	c #F8F8F4",
"-	c #F8F8F3",
";	c #9F9F9B",
">	c #F1F1ED",
",	c #92928D",
"'	c #EEEEEA",
")	c #EDECE4",
"!	c #E5E4DC",
".........................+",
"@@@@@@@@@@@@@@@@@@@@@@@@@.",
"#$$$$$$$$$$$$$$$$$$$#%%%%.",
"#&*****************&#%%%%.",
"#*=---------------=*#%%%%.",
"#*=%%%%%%%%%%%%%%%=*#%%%%.",
"#*=%%%%%%%%%%%%%%%=*#%%%%.",
"#*=%%%%;;%%%;;%%%%=*#%%%%.",
"#*=%%%%;;;%;;;%%%%=*#%%%%.",
"#*=%%%%%;;;;;%%%%%=*#%%%%.",
"#*=%%%%%%;;;%%%%%%=*#%%%%.",
"#*>$$$$$,,,,,$$$$$'*#)))).",
"#*>$$$$,,,$,,,$$$$'*#)))).",
"#*>$$$!,,$$$,,!$$$'*#)))).",
"#*>$$$!!$$$$$!!$$$'*#)))).",
"#*>$$$$$$$$$$$$$$$'*#)))).",
"#*>!!!!!!!!!!!!!!!'*#)))).",
"#&*****************&#)))).",
"#####################)))).",
"))))))))))))))))))))))))).",
"*************************."};
