/* XPM */
static char * iconbaru_xpm[] = {
"2 24 5 1",
" 	c None",
".	c #B6B396",
"+	c #D9D5C5",
"@	c #CCC7B3",
"#	c #B8B29A",
"..",
"++",
"++",
"++",
"++",
"++",
"++",
"++",
"++",
"++",
"++",
"++",
"@@",
"@@",
"@@",
"@@",
"@@",
"@@",
"@@",
"@@",
"@@",
"@@",
"@@",
"##"};
