/* XPM */
static char * iconu_xpm[] = {
"23 21 15 1",
" 	c None",
".	c #504F4D",
"+	c #F8F7F3",
"@	c #F2F1E9",
"#	c #F4F4ED",
"$	c #C2C1BA",
"%	c #9E9D98",
"&	c #F8F8F4",
"*	c #F8F8F3",
"=	c #F1F1ED",
"-	c #E7E6DE",
";	c #EEEEEA",
">	c #EDECE4",
",	c #92928D",
"'	c #E5E4DC",
".......................",
"+++++++++++++++++++++++",
"@@@@@@@@@@@@@@@@@@@@@##",
"@$%%%%%%%%%%%%%%%%%$@##",
"@%&***************&%@##",
"@%&###############&%@##",
"@%&###############&%@##",
"@%&###############&%@##",
"@%&###############&%@##",
"@%&###############&%@##",
"@%&###############&%@##",
"@%=---------------;%@>>",
"@%=----,,,,,,,----;%@>>",
"@%=---',,,,,,,'---;%@>>",
"@%=---'''''''''---;%@>>",
"@%=---------------;%@>>",
"@%=''''''''''''''';%@>>",
"@$%%%%%%%%%%%%%%%%%$@>>",
"@@@@@@@@@@@@@@@@@@@@@>>",
">>>>>>>>>>>>>>>>>>>>>>>",
"%%%%%%%%%%%%%%%%%%%%%%%"};
