/* XPM */
static char * max_xpm[] = {
"23 21 22 1",
" 	c None",
".	c #2E2C24",
"+	c #C1BEB1",
"@	c #A09C87",
"#	c #848068",
"$	c #6F6B57",
"%	c #5A5747",
"&	c #F8F8F4",
"*	c #F8F8F3",
"=	c #F4F4ED",
"-	c #5E5C51",
";	c #F1F1ED",
">	c #E7E6DE",
",	c #E5E4DC",
"'	c #4B483B",
")	c #EEEEEA",
"!	c #88836B",
"~	c #89856E",
"{	c #938F7A",
"]	c #9F9B86",
"^	c #A4A08C",
"/	c #B3B0A0",
".......................",
"+++++++++++++++++++++++",
"@###################@@@",
"#$%%%%%%%%%%%%%%%%%$#@@",
"#%&***************&%#@@",
"#%&===============&%#@@",
"#%&===============&%#@@",
"#%&====-------====&%#@@",
"#%&====-------====&%#@@",
"#%&====-=====-====&%#@@",
"#%&====-=====-====&%#@@",
"#%;>>>,'>>>>>',>>>)%#!!",
"#%;>>>,'>>>>>',>>>)%#!!",
"#%;>>>,''''''',>>>)%#!!",
"~%;>>>,,,,,,,,,>>>)%~!!",
"{%;>>>>>>>>>>>>>>>)%{!!",
"]%;,,,,,,,,,,,,,,,)%]!!",
"^$%%%%%%%%%%%%%%%%%$^!!",
"!///////////////////!!!",
"!!!!!!!!!!!!!!!!!!!!!!!",
"%%%%%%%%%%%%%%%%%%%%%%%"};
