/* XPM */
static char * maxu_xpm[] = {
"23 21 16 1",
" 	c None",
".	c #504F4D",
"+	c #F8F7F3",
"@	c #F2F1E9",
"#	c #E7E6DE",
"$	c #F4F4ED",
"%	c #C2C1BA",
"&	c #9E9D98",
"*	c #F8F8F4",
"=	c #F8F8F3",
"-	c #8B8A87",
";	c #F1F1ED",
">	c #E5E4DC",
",	c #82817D",
"'	c #EEEEEA",
")	c #EDECE4",
".......................",
"+++++++++++++++++++++++",
"@###################@$$",
"@%&&&&&&&&&&&&&&&&&%@$$",
"@&*===============*&@$$",
"@&*$$$$$$$$$$$$$$$*&@$$",
"@&*$$$$$$$$$$$$$$$*&@$$",
"@&*$$$$-------$$$$*&@$$",
"@&*$$$$-------$$$$*&@$$",
"@&*$$$$-$$$$$-$$$$*&@$$",
"@&*$$$$-$$$$$-$$$$*&@$$",
"@&;###>,#####,>###'&@))",
"@&;###>,#####,>###'&@))",
"@&;###>,,,,,,,>###'&@))",
"@&;###>>>>>>>>>###'&@))",
"@&;###############'&@))",
"@&;>>>>>>>>>>>>>>>'&@))",
"@%&&&&&&&&&&&&&&&&&%@))",
"@@@@@@@@@@@@@@@@@@@@@))",
")))))))))))))))))))))))",
"&&&&&&&&&&&&&&&&&&&&&&&"};
