/* XPM */
static char * menubar_xpm[] = {
"2 21 5 1",
" 	c None",
".	c #9C967F",
"+	c #DBD7C8",
"@	c #D5D0BE",
"#	c #9B957D",
"..",
"++",
"++",
"++",
"++",
"++",
"++",
"++",
"++",
"++",
"@@",
"@@",
"@@",
"@@",
"@@",
"@@",
"@@",
"@@",
"@@",
"@@",
"##"};
