/* XPM */
static char * windowbaru_xpm[] = {
"2 21 6 1",
" 	c None",
".	c #504F4D",
"+	c #F8F7F3",
"@	c #F4F4ED",
"#	c #EDECE4",
"$	c #9E9D98",
"..",
"++",
"@@",
"@@",
"@@",
"@@",
"@@",
"@@",
"@@",
"@@",
"@@",
"##",
"##",
"##",
"##",
"##",
"##",
"##",
"##",
"##",
"$$"};
