/* XPM */
static char * stick2a_xpm[] = {
"20 20 88 1",
" 	c None",
".	c #8F7763",
"+	c #000000",
"@	c #849673",
"#	c #685648",
"$	c #5A7142",
"%	c #675547",
"&	c #5F6F48",
"*	c #192D19",
"=	c #665346",
"-	c #947662",
";	c #796251",
">	c #5A6749",
",	c #635145",
"'	c #927362",
")	c #7B6152",
"!	c #1F372A",
"~	c #626D4D",
"{	c #615043",
"]	c #8F7060",
"^	c #FFFFFF",
"/	c #796051",
"(	c #22382B",
"_	c #6C7351",
":	c #604F42",
"<	c #8C6D5D",
"[	c #775D50",
"}	c #243B2B",
"|	c #747A56",
"1	c #5F4E41",
"2	c #886B5B",
"3	c #735A4D",
"4	c #7B8057",
"5	c #5E4D40",
"6	c #856759",
"7	c #EDEDED",
"8	c #70574C",
"9	c #283D2A",
"0	c #848559",
"a	c #5D4C3F",
"b	c #826457",
"c	c #D8D8D8",
"d	c #6D554A",
"e	c #354731",
"f	c #8A8C5B",
"g	c #5B4A3D",
"h	c #7F6155",
"i	c #C0C0C0",
"j	c #6B5249",
"k	c #384A34",
"l	c #939361",
"m	c #5A493C",
"n	c #7C5D53",
"o	c #A2A2A2",
"p	c #674F46",
"q	c #3E5038",
"r	c #9C9B65",
"s	c #57473B",
"t	c #6F5949",
"u	c #9B9B9B",
"v	c #654D45",
"w	c #3E4E34",
"x	c #A5A066",
"y	c #554539",
"z	c #6B5546",
"A	c #9D9D9D",
"B	c #624A43",
"C	c #415134",
"D	c #ADA76B",
"E	c #544438",
"F	c #624B3D",
"G	c #AEAEAE",
"H	c #5F4842",
"I	c #374E3A",
"J	c #B2AC72",
"K	c #524236",
"L	c #5C4540",
"M	c #324B38",
"N	c #F7F3BD",
"O	c #504034",
"P	c #5D473A",
"Q	c #59433E",
"R	c #4F3F33",
"S	c #584236",
"T	c #56403B",
"U	c #543E32",
"V	c #533D3A",
"W	c #162E20",
"....+...+@@@@@@@@@@@",
"###.+##.+$$$$$$$$$$$",
"###.+###.+$$$$$$$$$$",
"%%%.+%%%%.++++++&&**",
"===-+=====;;;;;;+&*>",
",,,'+++++,,,,,,,)+!~",
"{{{]+^^^^+{{{{{{/+(_",
":::<+^^^^^+:::::[+}|",
"1112+^^^^^^+11113+}4",
"5556+7777777+5558+90",
"aaab+cccccccc+aad+ef",
"gggh+iiiiiiii+ggj+kl",
"mmmn+oooooooo+mmp+qr",
"sssst+uuuuuuu+ssv+wx",
"yyyyyz+AAAAAA+yyB+CD",
"EEEEEEF+GGGG+FEEH+IJ",
"KKKKKKF+++++FKKKL+MN",
"OOOOOOP+PPPPOOOOQ+MM",
"RRRRRRS+RRRRRRRRT+MM",
"RRRRRRU+RRRRRRRRV+WW"};
