/* XPM */
static char * close_xpm[] = {
"20 20 5 1",
" 	c None",
".	c #EBEBEB",
"+	c #FFFFFF",
"@	c #FFA600",
"#	c #FFC14D",
"....................",
"++++++++++++++++++++",
"++++++++++++++++++++",
"++++++++++++++++++++",
"++++++++++++++++++++",
"++++++@#+++++#@+++++",
"++++++#@#+++#@#+++++",
"+++++++#@#+#@#++++++",
"++++++++#@#@#+++++++",
"+++++++++#@#++++++++",
"++++++++#@#@#+++++++",
"+++++++#@#+#@#++++++",
"++++++#@#+++#@#+++++",
"++++++@#+++++#@+++++",
"++++++++++++++++++++",
"++++++++++++++++++++",
"++++++++++++++++++++",
"++++++++++++++++++++",
"++++++++++++++++++++",
"...................."};
