/* XPM */
static char * stick2_xpm[] = {
"20 20 21 1",
" 	c None",
".	c #C7C7C7",
"+	c #F8F8F8",
"@	c #EFEFEF",
"#	c #E7E7E7",
"$	c #E6E6E6",
"%	c #E4E4E4",
"&	c #FFFFFF",
"*	c #E2E2E2",
"=	c #E0E0E0",
"-	c #DFDFDF",
";	c #DDDDDD",
">	c #DBDBDB",
",	c #D8D8D8",
"'	c #D6D6D6",
")	c #D4D4D4",
"!	c #D2D2D2",
"~	c #CFCFCF",
"{	c #CDCDCD",
"]	c #CACACA",
"^	c #929292",
"....................",
"++++++++++++++++++++",
"@@@@@@@@@@@@@@@@@@@@",
"####################",
"$$$$$$$$$$$$$$$$$$$$",
"$$$$$$$$$$$$$$$$$$$$",
"%%%%%%&&&&&&&&%%%%%%",
"******&******&******",
"======&======&======",
"------&------&------",
";;;;;;&;;;;;;&;;;;;;",
">>>>>>&>>>>>>&>>>>>>",
",,,,,,&,,,,,,&,,,,,,",
"''''''&&&&&&&&''''''",
"))))))))))))))))))))",
"!!!!!!!!!!!!!!!!!!!!",
"~~~~~~~~~~~~~~~~~~~~",
"{{{{{{{{{{{{{{{{{{{{",
"]]]]]]]]]]]]]]]]]]]]",
"^^^^^^^^^^^^^^^^^^^^"};
