/* XPM */
static char * stuck_xpm[] = {
"20 20 4 1",
" 	c None",
".	c #EBEBEB",
"+	c #FFFFFF",
"@	c #FFA600",
"....................",
"++++++++++++++++++++",
"++++++++++++++++++++",
"++++++++++++++++++++",
"++++++++++++++++++++",
"++++++++++++++++++++",
"++++++@@@@@@@@++++++",
"++++++@++++++@++++++",
"++++++@+@@@@+@++++++",
"++++++@+@@@@+@++++++",
"++++++@+@@@@+@++++++",
"++++++@+@@@@+@++++++",
"++++++@++++++@++++++",
"++++++@@@@@@@@++++++",
"++++++++++++++++++++",
"++++++++++++++++++++",
"++++++++++++++++++++",
"++++++++++++++++++++",
"++++++++++++++++++++",
"...................."};
