/* XPM */
static char * max2a_xpm[] = {
"20 20 35 1",
" 	c #8F7763",
".	c #000000",
"+	c #685648",
"@	c #675547",
"#	c #665346",
"$	c #796251",
"%	c #635145",
"&	c #615043",
"*	c #FFFFFF",
"=	c #604F42",
"-	c #5F4E41",
";	c #DEDEDE",
">	c #5E4D40",
",	c #C7C7C7",
"'	c #5D4C3F",
")	c #B9B9B9",
"!	c #5B4A3D",
"~	c #B5B5B5",
"{	c #755D4D",
"]	c #5A493C",
"^	c #6F5949",
"/	c #57473B",
"(	c #D0D0D0",
"_	c #6B5546",
":	c #554539",
"<	c #E5E5E5",
"[	c #665042",
"}	c #544438",
"|	c #624B3D",
"1	c #524236",
"2	c #5D473A",
"3	c #504034",
"4	c #584236",
"5	c #4F3F33",
"6	c #543E32",
"          .         ",
"++++++++++. ++++++++",
"++++++++++. ++++++++",
"@@@@@@@@@@. @@@@@@@@",
"##########. $$$$####",
"%%%%%%%%%%......$%%%",
"&&&&&&&&&.*****.$&&&",
"==========.****.$===",
"---------.;;;;;.$---",
">>>>>>>>.,,,,,,.$>>>",
"'''''''.))))).).$'''",
"!!!!!!.~~~~~.{..{!!!",
"]]]]].))))).^]^^]]]]",
"//////.(((._////////",
":::::::.<.[:::::::::",
"}}}}}}}}.|}}}}}}}}}}",
"11111111.21111111111",
"33333333.43333333333",
"55555555.65555555555",
"55555555.65555555555"};
