/* XPM */
static char * min1_xpm[] = {
"20 20 60 1",
" 	c None",
".	c #849673",
"+	c #000000",
"@	c #8F7763",
"#	c #5A7142",
"$	c #685648",
"%	c #5F6F48",
"&	c #675547",
"*	c #4A5B3B",
"=	c #665346",
"-	c #415134",
";	c #6E825F",
">	c #8F7663",
",	c #635145",
"'	c #615043",
")	c #3E4E34",
"!	c #6C825E",
"~	c #8C7460",
"{	c #3E5038",
"]	c #6A7F60",
"^	c #876F5C",
"/	c #604F42",
"(	c #384A34",
"_	c #667A5F",
":	c #836B59",
"<	c #5F4E41",
"[	c #354731",
"}	c #5E7559",
"|	c #7E6655",
"1	c #5E4D40",
"2	c #283D2A",
"3	c #597056",
"4	c #796251",
"5	c #5D4C3F",
"6	c #536952",
"7	c #755D4D",
"8	c #5B4A3D",
"9	c #4E644F",
"0	c #6F5949",
"a	c #5A493C",
"b	c #243B2B",
"c	c #475E4A",
"d	c #6B5546",
"e	c #57473B",
"f	c #22382B",
"g	c #405848",
"h	c #665042",
"i	c #554539",
"j	c #1F372A",
"k	c #624B3D",
"l	c #544438",
"m	c #142E23",
"n	c #324B38",
"o	c #5D473A",
"p	c #524236",
"q	c #584236",
"r	c #504034",
"s	c #543E32",
"t	c #4F3F33",
"u	c #162E20",
"............+@@@+@@@",
"###########+$$$$+@$$",
"##########+@$$$$+@$$",
"..%%++++++@&&&&&+@&&",
"*.%+@@@@@@======+@==",
"-;+>,',,,,,,,,,,,+@,",
")!+~''''''''''''''+@",
"{]+^///////////////+",
"(_+:<<<<<<<<<<<<<<+:",
"[}+|1111111111111+|1",
"23+4555555555555+455",
"26+788888888888+7888",
"29+0aaaaaaaaaa+0aaaa",
"bc+deeeeeeeeeee+deee",
"fg+hiiiiii++++++hiii",
"jg+klllll+kkkkkkllll",
"mn+oppppp+oppppppppp",
"nn+qrrrrr+qrrrrrrrrr",
"nn+sttttt+sttttttttt",
"uu+tttttt+tttttttttt"};
