/* XPM */
static char * min2a_xpm[] = {
"20 20 80 1",
" 	c None",
".	c #849673",
"+	c #000000",
"@	c #8F7763",
"#	c #5A7142",
"$	c #685648",
"%	c #192D19",
"&	c #5F6F48",
"*	c #675547",
"=	c #5A6749",
"-	c #665346",
";	c #626D4D",
">	c #1F372A",
",	c #5B6B47",
"'	c #8F7663",
")	c #635145",
"!	c #FFFFFF",
"~	c #796251",
"{	c #6C7351",
"]	c #22382B",
"^	c #576848",
"/	c #8C7460",
"(	c #615043",
"_	c #747A56",
":	c #243B2B",
"<	c #546447",
"[	c #876F5C",
"}	c #604F42",
"|	c #7B8057",
"1	c #4F6244",
"2	c #836B59",
"3	c #5F4E41",
"4	c #DEDEDE",
"5	c #848559",
"6	c #283D2A",
"7	c #4C5F43",
"8	c #7E6655",
"9	c #5E4D40",
"0	c #C7C7C7",
"a	c #8A8C5B",
"b	c #354731",
"c	c #495B41",
"d	c #5D4C3F",
"e	c #B9B9B9",
"f	c #939361",
"g	c #384A34",
"h	c #465840",
"i	c #755D4D",
"j	c #5B4A3D",
"k	c #B4B4B4",
"l	c #9C9B65",
"m	c #3E5038",
"n	c #42553F",
"o	c #6F5949",
"p	c #5A493C",
"q	c #BABABA",
"r	c #A5A066",
"s	c #3E4E34",
"t	c #3F523C",
"u	c #6B5546",
"v	c #57473B",
"w	c #D0D0D0",
"x	c #ADA76B",
"y	c #415134",
"z	c #3B513C",
"A	c #665042",
"B	c #554539",
"C	c #B2AC72",
"D	c #374E3A",
"E	c #624B3D",
"F	c #544438",
"G	c #F7F3BD",
"H	c #324B38",
"I	c #5D473A",
"J	c #524236",
"K	c #584236",
"L	c #504034",
"M	c #543E32",
"N	c #4F3F33",
"O	c #162E20",
"............+@@@+@@@",
"###########+$$$$+@$$",
"##########+@$$$$+@$$",
"%%&&&+++++@*****+@**",
"=%&&+@@@@@------+@--",
";>,+'))))))))))+!+~)",
"{]^+/(((((((((+!!!+~",
"_:<+[}}}}}}}}+!!!!!+",
"|:1+233333+3+44444+~",
"567+89999+0+00000+~9",
"abc+~dddd+eeeeee+~dd",
"fgh+ijjjj+kkkkk+ijjj",
"lmn+opppp+qqqq+opppp",
"rst+uvvvv+wwwww+uvvv",
"xyz+ABBBBB++++++ABBB",
"CDD+EFFFF+EEEEEEFFFF",
"GHD+IJJJJ+IJJJJJJJJJ",
"HHH+KLLLL+KLLLLLLLLL",
"HHH+MNNNN+MNNNNNNNNN",
"OOO+NNNNN+NNNNNNNNNN"};
