/* XPM */
static char * stick2_xpm[] = {
"20 20 81 1",
" 	c None",
".	c #8F7763",
"+	c #000000",
"@	c #849673",
"#	c #685648",
"$	c #5A7142",
"%	c #675547",
"&	c #5F6F48",
"*	c #192D19",
"=	c #665346",
"-	c #947662",
";	c #796251",
">	c #5A6749",
",	c #635145",
"'	c #927362",
")	c #7B6152",
"!	c #1F372A",
"~	c #626D4D",
"{	c #615043",
"]	c #8F7060",
"^	c #796051",
"/	c #22382B",
"(	c #6C7351",
"_	c #604F42",
":	c #8C6D5D",
"<	c #775D50",
"[	c #243B2B",
"}	c #747A56",
"|	c #5F4E41",
"1	c #886B5B",
"2	c #735A4D",
"3	c #7B8057",
"4	c #5E4D40",
"5	c #856759",
"6	c #70574C",
"7	c #283D2A",
"8	c #848559",
"9	c #5D4C3F",
"0	c #826457",
"a	c #6D554A",
"b	c #354731",
"c	c #8A8C5B",
"d	c #5B4A3D",
"e	c #7F6155",
"f	c #755D4D",
"g	c #6B5249",
"h	c #384A34",
"i	c #939361",
"j	c #5A493C",
"k	c #7C5D53",
"l	c #674F46",
"m	c #3E5038",
"n	c #9C9B65",
"o	c #57473B",
"p	c #6F5949",
"q	c #654D45",
"r	c #3E4E34",
"s	c #A5A066",
"t	c #554539",
"u	c #6B5546",
"v	c #624A43",
"w	c #415134",
"x	c #ADA76B",
"y	c #544438",
"z	c #624B3D",
"A	c #5F4842",
"B	c #374E3A",
"C	c #B2AC72",
"D	c #524236",
"E	c #5C4540",
"F	c #324B38",
"G	c #F7F3BD",
"H	c #504034",
"I	c #5D473A",
"J	c #59433E",
"K	c #4F3F33",
"L	c #584236",
"M	c #56403B",
"N	c #543E32",
"O	c #533D3A",
"P	c #162E20",
"....+...+@@@@@@@@@@@",
"###.+##.+$$$$$$$$$$$",
"###.+###.+$$$$$$$$$$",
"%%%.+%%%%.++++++&&**",
"===-+=====;;;;;;+&*>",
",,,'+++++,,,,,,,)+!~",
"{{{]+]]]]+{{{{{{^+/(",
"___:+____:+_____<+[}",
"|||1+|||||1+||||2+[3",
"4445+4444445+4446+78",
"9990+99999990+99a+bc",
"ddde+dddddddf+ddg+hi",
"jjjk+jjjjjjjf+jjl+mn",
"oooop+oooooop+ooq+rs",
"tttttu+tttttu+ttv+wx",
"yyyyyyz+yyyy+zyyA+BC",
"DDDDDDz+++++zDDDE+FG",
"HHHHHHI+IIIIHHHHJ+FF",
"KKKKKKL+KKKKKKKKM+FF",
"KKKKKKN+KKKKKKKKO+PP"};
