/* XPM */
static char * stick1a_xpm[] = {
"20 20 85 1",
" 	c None",
".	c #8F7763",
"+	c #000000",
"@	c #849673",
"#	c #685648",
"$	c #5A7142",
"%	c #675547",
"&	c #5F6F48",
"*	c #665346",
"=	c #947662",
"-	c #796251",
";	c #4A5B3B",
">	c #635145",
",	c #927362",
"'	c #7B6152",
")	c #6E825F",
"!	c #415134",
"~	c #615043",
"{	c #8F7060",
"]	c #FFFFFF",
"^	c #796051",
"/	c #6C825E",
"(	c #3E4E34",
"_	c #604F42",
":	c #8C6D5D",
"<	c #775D50",
"[	c #6A7F60",
"}	c #3E5038",
"|	c #5F4E41",
"1	c #886B5B",
"2	c #735A4D",
"3	c #667A5F",
"4	c #384A34",
"5	c #5E4D40",
"6	c #856759",
"7	c #EDEDED",
"8	c #70574C",
"9	c #5E7559",
"0	c #354731",
"a	c #5D4C3F",
"b	c #826457",
"c	c #D8D8D8",
"d	c #6D554A",
"e	c #597056",
"f	c #283D2A",
"g	c #5B4A3D",
"h	c #7F6155",
"i	c #C0C0C0",
"j	c #6B5249",
"k	c #536952",
"l	c #5A493C",
"m	c #7C5D53",
"n	c #A2A2A2",
"o	c #674F46",
"p	c #4E644F",
"q	c #57473B",
"r	c #6F5949",
"s	c #9B9B9B",
"t	c #654D45",
"u	c #475E4A",
"v	c #243B2B",
"w	c #554539",
"x	c #6B5546",
"y	c #9D9D9D",
"z	c #624A43",
"A	c #405848",
"B	c #22382B",
"C	c #544438",
"D	c #624B3D",
"E	c #AEAEAE",
"F	c #5F4842",
"G	c #1F372A",
"H	c #524236",
"I	c #5C4540",
"J	c #324B38",
"K	c #142E23",
"L	c #504034",
"M	c #5D473A",
"N	c #59433E",
"O	c #4F3F33",
"P	c #584236",
"Q	c #56403B",
"R	c #543E32",
"S	c #533D3A",
"T	c #162E20",
"....+...+@@@@@@@@@@@",
"###.+##.+$$$$$$$$$$$",
"###.+###.+$$$$$$$$$$",
"%%%.+%%%%.++++++&&@@",
"***=+*****------+&@;",
">>>,+++++>>>>>>>'+)!",
"~~~{+]]]]+~~~~~~^+/(",
"___:+]]]]]+_____<+[}",
"|||1+]]]]]]+||||2+34",
"5556+7777777+5558+90",
"aaab+cccccccc+aad+ef",
"gggh+iiiiiiii+ggj+kf",
"lllm+nnnnnnnn+llo+pf",
"qqqqr+sssssss+qqt+uv",
"wwwwwx+yyyyyy+wwz+AB",
"CCCCCCD+EEEE+DCCF+AG",
"HHHHHHD+++++DHHHI+JK",
"LLLLLLM+MMMMLLLLN+JJ",
"OOOOOOP+OOOOOOOOQ+JJ",
"OOOOOOR+OOOOOOOOS+TT"};
