/* XPM */
static char * button_max_xpm[] = {
"14 14 6 1",
" 	c None",
".	c #282828",
"+	c #1E1E1E",
"@	c #121212",
"#	c #080808",
"$	c #008AFF",
"..............",
"++++++++++++++",
"@@@@@@@@@@@@@@",
"##############",
"####$$$$$$####",
"####$$$$$$####",
"####$####$####",
"####$####$####",
"####$####$####",
"####$$$$$$####",
"##############",
"##############",
"##############",
"##############"};
