/* XPM */
static char * toolbar_xpm[] = {
"14 14 5 1",
" 	c None",
".	c #282828",
"+	c #1E1E1E",
"@	c #121212",
"#	c #080808",
"..............",
"++++++++++++++",
"@@@@@@@@@@@@@@",
"##############",
"##############",
"##############",
"##############",
"##############",
"##############",
"##############",
"##############",
"##############",
"##############",
"##############"};
