/* XPM */
static char * close2a_xpm[] = {
"20 20 60 1",
" 	c None",
".	c #0079E4",
"+	c #007AE6",
"@	c #0077E3",
"#	c #0078E3",
"$	c #0076E1",
"%	c #0076E0",
"&	c #00040B",
"*	c #0077E2",
"=	c #0078E4",
"-	c #0075DE",
";	c #0075E0",
">	c #0079E5",
",	c #000000",
"'	c #0077E1",
")	c #0075DF",
"!	c #0072DC",
"~	c #0074DE",
"{	c #00101D",
"]	c #0078E2",
"^	c #000309",
"/	c #0078F6",
"(	c #0075FC",
"_	c #000205",
":	c #0076FE",
"<	c #0076FC",
"[	c #0073DD",
"}	c #0076F7",
"|	c #001425",
"1	c #006FFB",
"2	c #0071F6",
"3	c #000E1B",
"4	c #00101F",
"5	c #0079FD",
"6	c #0049A4",
"7	c #004BA7",
"8	c #0070FC",
"9	c #FFFFFF",
"0	c #0070FD",
"a	c #0071FD",
"b	c #0048A2",
"c	c #0050AE",
"d	c #004CA8",
"e	c #006FFA",
"f	c #006FF9",
"g	c #DEDEDE",
"h	c #006CF3",
"i	c #006DF6",
"j	c #C7C7C7",
"k	c #006CF4",
"l	c #B9B9B9",
"m	c #B4B4B4",
"n	c #006EF8",
"o	c #BABABA",
"p	c #D1D1D1",
"q	c #D0D0D0",
"r	c #000206",
"s	c #0062DE",
"t	c #0069ED",
"u	c #006EF7",
"..+@#$%&*#=@$%-$;%*;",
">=;*+=*,#>>>=.===')!",
"*;~'=#@{@#>.=.>>.*@'",
"$*%]>=%^;.>@=$%#@*$)",
"=>.+=/(_@#>>;:<;>>.=",
"[>'[}||1$++*2345*>>>",
"6768,99,0;!a,99,bcd6",
"bbbb8,99,ee,99,8bbbb",
"bbbbbf,gg,,gg,hbbbbb",
"bbbbbbi,jjjj,kbbbbbb",
"bbbbbbi,llll,kbbbbbb",
"bbbbbf,mm,,mm,hbbbbb",
"bbbb8,ll,nn,ol,hbbbb",
"bbbh,pq,fbbf,qp,bbbb",
"bbbbfr,fbbbbf,,,bbbb",
"bbbb,stbbbbbbuf,bbbb",
"bbbb,bbbbbbbbbb,bbbb",
"bbbb,bbbbbbbbbb,bbbb",
"bbbb,bbbbbbbbbb,bbbb",
"bbbb,bbbbbbbbbb,bbbb"};
