/* XPM */
static char * min2a_xpm[] = {
"20 20 71 1",
" 	c None",
".	c #001C3F",
"+	c #000000",
"@	c #006CF6",
"#	c #0C73E0",
"$	c #0870DB",
"%	c #006BF3",
"&	c #0E77E5",
"*	c #1179EA",
"=	c #1078E7",
"-	c #0F78E8",
";	c #1077E7",
">	c #0B74E2",
",	c #0C74E1",
"'	c #01060C",
")	c #127AEB",
"!	c #127AEC",
"~	c #117AEB",
"{	c #1279E9",
"]	c #127AEA",
"^	c #006EF8",
"/	c #0C75E4",
"(	c #1079EA",
"_	c #0B75E2",
":	c #1178E8",
"<	c #1278E9",
"[	c #006EF6",
"}	c #0C76E4",
"|	c #0E79E8",
"1	c #0C76E3",
"2	c #0F77E6",
"3	c #1279EB",
"4	c #1278EA",
"5	c #1179E9",
"6	c #0F76E5",
"7	c #0A2341",
"8	c #016EF7",
"9	c #016FF8",
"0	c #006CF4",
"a	c #016FF5",
"b	c #0471F4",
"c	c #0B73E0",
"d	c #0F79E9",
"e	c #0D76E5",
"f	c #0C75E3",
"g	c #0C73E1",
"h	c #1178E9",
"i	c #0770DB",
"j	c #0771DC",
"k	c #0971DD",
"l	c #0972DE",
"m	c #056ED8",
"n	c #0E74E3",
"o	c #0D75E3",
"p	c #0771DB",
"q	c #016FF3",
"r	c #FFFFFF",
"s	c #0F76E6",
"t	c #0E76E6",
"u	c #004FAB",
"v	c #0048A2",
"w	c #0049A3",
"x	c #006EF5",
"y	c #006EF7",
"z	c #DEDEDE",
"A	c #C7C7C7",
"B	c #B9B9B9",
"C	c #B4B4B4",
"D	c #BABABA",
"E	c #D1D1D1",
"F	c #D0D0D0",
".........+@#$%+&*=-;",
".........+@>,%')!~{]",
"........+^/(_@+)):<{",
"..++++++[}~|1@+23456",
"7+89[0abcdefg^+9;h;2",
"+^ijklim,nopq+r+^sdt",
"+@uvvvvwvvv^+rrr+xvv",
"+@vvvvvvvvy+rrrrr+^v",
"+@vvvvv^+^+zzzzz+^vv",
"+@vvvvv+A+AAAAA+^vvv",
"+@vvvvv+BBBBBB+^vvvv",
"+@vvvvv+CCCCC+^vvvvv",
"+@vvvvv+DDBB+^vvvvvv",
"+@vvvvv+EFEEF+vvvvvv",
"+@vvvvv^++++++vvvvvv",
"+@vvvvv+vvvvvvvvvvvv",
"+@vvvvv+vvvvvvvvvvvv",
"+@vvvvv+vvvvvvvvvvvv",
"+vvvvvv+vvvvvvvvvvvv",
"+vvvvvv+vvvvvvvvvvvv"};
