/* XPM */
static char * stick1a_xpm[] = {
"20 20 52 1",
" 	c None",
".	c #0070DB",
"+	c #006ED8",
"@	c #006FDA",
"#	c #0070DA",
"$	c #006ED6",
"%	c #000105",
"&	c #0073DE",
"*	c #000000",
"=	c #001C3F",
"-	c #006ED9",
";	c #0074DF",
">	c #0075E1",
",	c #0072DC",
"'	c #0071DB",
")	c #0072DD",
"!	c #000409",
"~	c #0071DC",
"{	c #00070D",
"]	c #0071DA",
"^	c #0075E0",
"/	c #0073DD",
"(	c #00060C",
"_	c #0072DE",
":	c #0072DB",
"<	c #000104",
"[	c #0075DF",
"}	c #006FD8",
"|	c #0070D9",
"1	c #0073DC",
"2	c #0071DD",
"3	c #006ED7",
"4	c #006DD9",
"5	c #FFFFFF",
"6	c #006FD7",
"7	c #0070D8",
"8	c #00050B",
"9	c #0048A2",
"0	c #000F1C",
"a	c #EDEDED",
"b	c #EEEEEE",
"c	c #D8D8D8",
"d	c #D9D9D9",
"e	c #C0C0C0",
"f	c #BFBFBF",
"g	c #A2A2A2",
"h	c #A3A3A3",
"i	c #9B9B9B",
"j	c #9A9A9A",
"k	c #9E9E9E",
"l	c #9D9D9D",
"m	c #AEAEAE",
".+@.#$%#&.*=========",
".&.-.#*;>,*=========",
"'&..))!~;;){========",
"';],;,*&^^/]*****(==",
"_/,~:.<]/;,[]''#}-*=",
"#|]:)#*****')1,#'23*",
"}}|})4*5555*'676}}38",
"999999*55555*9999990",
"999999*555555*999990",
"999999*aabaaaa*99998",
"999999*ccccdccc*999*",
"999999*effefeff*999*",
"999999*ghgghggh*999*",
"9999999*ijiiiii*999*",
"99999999*klllll*999*",
"999999999*mmmm*9999*",
"999999999*****99999*",
"999999999*999999999*",
"999999999*999999999*",
"999999999*999999999*"};
